<?xml version="1.0" encoding="UTF-8"?>
<svg width="24px" height="24px" viewBox="0 0 24 24" version="1.1" xmlns="http://www.w3.org/2000/svg" xmlns:xlink="http://www.w3.org/1999/xlink">
    <title>Icon / CSV</title>
    <g id="Icon-/-CSV" stroke="none" stroke-width="1" fill="none" fill-rule="evenodd">
        <rect id="Spacer" x="0" y="0" width="24" height="24"></rect>
        <g id="file-earmark-word-fill" transform="translate(6.000000, 4.000000)" fill="#000D14" fill-rule="nonzero">
            <path d="M7.293,0 L2,0 C0.8954305,0 0,0.8954305 0,2 L0,14 C0,15.1045695 0.8954305,16 2,16 L10,16 C11.1045695,16 12,15.1045695 12,14 L12,4.707 C12,4.44180519 11.8945494,4.18749273 11.707,4 L8,0.293 C7.81250727,0.105450625 7.55819481,0 7.293,0 Z M6.146,10.184 C6.41533333,10.184 6.636,10.2513333 6.808,10.386 C6.98,10.5206667 7.07533333,10.7053333 7.094,10.94 L7.094,10.94 L6.59,10.94 L6.5765,10.86675 C6.5555,10.79625 6.512,10.734 6.446,10.68 C6.358,10.608 6.242,10.572 6.098,10.572 C5.96733333,10.572 5.86066667,10.6053333 5.778,10.672 C5.69533333,10.7386667 5.654,10.8346667 5.654,10.96 C5.654,11.0453333 5.68,11.1153333 5.732,11.17 C5.784,11.2246667 5.85,11.268 5.93,11.3 C6.01,11.332 6.11933333,11.3666667 6.258,11.404 C6.442,11.4546667 6.592,11.5053333 6.708,11.556 C6.824,11.6066667 6.92266667,11.6846667 7.004,11.79 C7.08533333,11.8953333 7.126,12.036 7.126,12.212 C7.126,12.3533333 7.088,12.4866667 7.012,12.612 C6.936,12.7373333 6.82533333,12.838 6.68,12.914 C6.53466667,12.99 6.36333333,13.028 6.166,13.028 C5.97933333,13.028 5.81133333,12.9953333 5.662,12.93 C5.51266667,12.8646667 5.39533333,12.772 5.31,12.652 C5.22466667,12.532 5.182,12.392 5.182,12.232 L5.182,12.232 L5.67,12.232 L5.684875,12.318 C5.706625,12.4 5.749,12.47 5.812,12.528 C5.896,12.6053333 6.014,12.644 6.166,12.644 C6.32333333,12.644 6.446,12.606 6.534,12.53 C6.622,12.454 6.666,12.356 6.666,12.236 C6.666,12.1426667 6.63866667,12.0666667 6.584,12.008 C6.52933333,11.9493333 6.46133333,11.904 6.38,11.872 C6.29866667,11.84 6.186,11.8053333 6.042,11.768 C5.86066667,11.72 5.71333333,11.6713333 5.6,11.622 C5.48666667,11.5726667 5.39,11.496 5.31,11.392 C5.23,11.288 5.19,11.1493333 5.19,10.976 C5.19,10.816 5.23,10.676 5.31,10.556 C5.39,10.436 5.502,10.344 5.646,10.28 C5.79,10.216 5.95666667,10.184 6.146,10.184 Z M3.426,10.184 C3.722,10.184 3.98533333,10.2566667 4.216,10.402 C4.44666667,10.5473333 4.614,10.7533333 4.718,11.02 L4.718,11.02 L4.17,11.02 L4.11075,10.917 C4.04625,10.821 3.966,10.746 3.87,10.692 C3.742,10.62 3.594,10.584 3.426,10.584 C3.242,10.584 3.078,10.6253333 2.934,10.708 C2.79,10.7906667 2.67733333,10.9093333 2.596,11.064 C2.51466667,11.2186667 2.474,11.3986667 2.474,11.604 C2.474,11.8093333 2.51466667,11.9893333 2.596,12.144 C2.67733333,12.2986667 2.79,12.418 2.934,12.502 C3.078,12.586 3.242,12.628 3.426,12.628 C3.594,12.628 3.742,12.592 3.87,12.52 C3.998,12.448 4.098,12.3386667 4.17,12.192 L4.17,12.192 L4.718,12.192 L4.648,12.34464 C4.54453333,12.5383467 4.40053333,12.6928 4.216,12.808 C3.98533333,12.952 3.722,13.024 3.426,13.024 C3.16466667,13.024 2.926,12.9633333 2.71,12.842 C2.494,12.7206667 2.32266667,12.552 2.196,12.336 C2.06933333,12.12 2.006,11.876 2.006,11.604 C2.006,11.332 2.06933333,11.088 2.196,10.872 C2.32266667,10.656 2.49466667,10.4873333 2.712,10.366 C2.92933333,10.2446667 3.16733333,10.184 3.426,10.184 Z M7.93,10.22 L8.754,12.532 L9.582,10.22 L10.062,10.22 L9.018,13 L8.49,13 L7.442,10.22 L7.93,10.22 Z M7.5,1.5 L10.5,4.5 L8.5,4.5 C7.94771525,4.5 7.5,4.05228475 7.5,3.5 L7.5,1.5 Z" id="Shape"></path>
        </g>
    </g>
</svg>