<?xml version="1.0" encoding="UTF-8"?>
<svg width="24px" height="24px" viewBox="0 0 24 24" version="1.1" xmlns="http://www.w3.org/2000/svg" xmlns:xlink="http://www.w3.org/1999/xlink">
    <title>Icon / PDF</title>
    <g id="Icon-/-PDF" stroke="none" stroke-width="1" fill="none" fill-rule="evenodd">
        <rect id="Spacer" x="0" y="0" width="24" height="24"></rect>
        <g id="file-earmark-pdf-fill-copy" transform="translate(6.000000, 4.000000)" fill="#000D14" fill-rule="nonzero">
            <path d="M7.293,0 C7.55819481,0 7.81250727,0.105450625 8,0.293 L11.707,4 C11.8945494,4.18749273 12,4.44180519 12,4.707 L12,14 C12,15.1045695 11.1045695,16 10,16 L2,16 C0.8954305,16 0,15.1045695 0,14 L0,2 C0,0.8954305 0.8954305,0 2,0 L7.293,0 Z M5.861,5.652 C5.484,5.802 5.285,6.122 5.21,6.475 C5.137,6.815 5.17,7.211 5.256,7.611 C5.344,8.017 5.494,8.459 5.686,8.906 C5.37888611,9.66979687 5.02419045,10.413589 4.624,11.133 C4.10864136,11.2951491 3.61187818,11.5113517 3.142,11.778 C2.772,11.998 2.443,12.258 2.245,12.565 C2.035,12.891 1.97,13.279 2.165,13.668 L2.165,13.668 C2.255,13.848 2.395,14.011 2.603,14.087 C2.81,14.162 3.015,14.127 3.183,14.057 C3.501,13.927 3.818,13.621 4.109,13.271 C4.442,12.87 4.792,12.344 5.13,11.761 C5.78253083,11.5675995 6.45075285,11.4317466 7.127,11.355 C7.427,11.738 7.737,12.068 8.037,12.305 C8.317,12.525 8.64,12.708 8.971,12.722 C9.15129844,12.7309269 9.32980397,12.6826254 9.481,12.584 C9.636,12.483 9.751,12.337 9.835,12.168 C9.925,11.987 9.98,11.798 9.973,11.605 C9.96666616,11.4147178 9.8961831,11.2321667 9.773,11.087 C9.547,10.817 9.177,10.687 8.813,10.622 C8.37144559,10.5536099 7.92343305,10.5368304 7.478,10.572 C7.10185742,10.0402536 6.77389142,9.47601817 6.498,8.886 C6.748,8.226 6.935,7.602 7.018,7.092 C7.054,6.874 7.073,6.666 7.066,6.478 C7.06475708,6.29138678 7.02134157,6.10746911 6.939,5.94 C6.84292822,5.75283503 6.66777087,5.61880478 6.462,5.575 C6.26,5.532 6.052,5.575 5.861,5.652 Z M3.982,12.186 C3.84176875,12.395074 3.69159643,12.5973061 3.532,12.792 C3.252,13.129 3.034,13.308 2.897,13.364 C2.88562601,13.3688075 2.87393106,13.3728172 2.862,13.376 C2.85201942,13.3621505 2.84331702,13.3474234 2.836,13.332 C2.78,13.222 2.782,13.116 2.876,12.972 C2.982,12.807 3.195,12.618 3.523,12.424 C3.663,12.342 3.816,12.262 3.982,12.186 Z M8.068,11.306 C8.296,11.311 8.502,11.328 8.68,11.36 C8.997,11.417 9.146,11.507 9.198,11.569 C9.21439073,11.5863148 9.22367152,11.6091599 9.224,11.633 C9.22049464,11.7035424 9.19990419,11.7721772 9.164,11.833 C9.14383523,11.8817198 9.11146207,11.9244249 9.07,11.957 C9.04935995,11.9696637 9.02503472,11.9749518 9.001,11.972 C8.911,11.969 8.743,11.906 8.503,11.716 C8.34767502,11.5907199 8.20224375,11.4536468 8.068,11.306 Z M6.122,9.805 C6.28007194,10.0979238 6.45021799,10.3841696 6.632,10.663 C6.415,10.695 6.196,10.733 5.978,10.777 C5.859,10.802 5.741,10.827 5.622,10.855 C5.79826057,10.5096497 5.96499026,10.1595174 6.122,9.805 Z M6.284,6.308 C6.297,6.338 6.312,6.4 6.316,6.506 C6.321,6.628 6.309,6.783 6.278,6.971 C6.238,7.214 6.17,7.494 6.078,7.799 C6.0441028,7.68479643 6.01441608,7.56938514 5.989,7.453 C5.913,7.1 5.902,6.823 5.943,6.631 C5.981,6.454 6.053,6.383 6.139,6.348 C6.18512492,6.32766931 6.23397514,6.31419339 6.284,6.308 Z M7.5,1.5 L7.5,3.5 C7.5,4.05228475 7.94771525,4.5 8.5,4.5 L10.5,4.5 L7.5,1.5 Z" id="Combined-Shape"></path>
        </g>
    </g>
</svg>