<?xml version="1.0" encoding="UTF-8"?>
<svg width="24px" height="24px" viewBox="0 0 24 24" version="1.1" xmlns="http://www.w3.org/2000/svg" xmlns:xlink="http://www.w3.org/1999/xlink">
    <title>Icon / Word</title>
    <g id="Icon-/-Word" stroke="none" stroke-width="1" fill="none" fill-rule="evenodd">
        <rect id="Spacer" x="0" y="0" width="24" height="24"></rect>
        <g id="file-earmark-word-fill" transform="translate(6.000000, 4.000000)" fill="#000D14" fill-rule="nonzero">
            <path d="M7.293,0 L2,0 C0.8954305,0 0,0.8954305 0,2 L0,14 C0,15.1045695 0.8954305,16 2,16 L10,16 C11.1045695,16 12,15.1045695 12,14 L12,4.707 C12,4.44180519 11.8945494,4.18749273 11.707,4 L8,0.293 C7.81250727,0.105450625 7.55819481,0 7.293,0 Z M7.5,3.5 L7.5,1.5 L10.5,4.5 L8.5,4.5 C7.94771525,4.5 7.5,4.05228475 7.5,3.5 Z M3.485,6.879 L4.521,11.023 L5.518,7.368 C5.57781187,7.15115849 5.77506067,7.00095112 6,7.00095112 C6.22493933,7.00095112 6.42218813,7.15115849 6.482,7.368 L7.479,11.023 L8.515,6.879 C8.58683668,6.61703916 8.85467657,6.46034895 9.11823034,6.52610154 C9.38178411,6.59185413 9.54463325,6.85599459 9.485,7.121 L7.985,13.121 C7.92945447,13.3412214 7.73246031,13.4963415 7.50535409,13.49869 C7.27824786,13.5010386 7.0780879,13.3500256 7.018,13.131 L6,9.402 L4.982,13.132 C4.9219121,13.3510256 4.72175214,13.5020386 4.49464591,13.4997171 C4.26753969,13.4973415 4.07054553,13.3422214 4.015,13.122 L2.515,7.122 C2.46702823,6.94706535 2.51756247,6.75987002 2.64705058,6.63284147 C2.77653869,6.50581292 2.96466859,6.45887741 3.13865123,6.51019471 C3.31263387,6.561512 3.44517755,6.70303222 3.485,6.88 L3.485,6.879 Z" id="Shape"></path>
        </g>
    </g>
</svg>