<?xml version="1.0" encoding="UTF-8"?>
<svg width="24px" height="24px" viewBox="0 0 24 24" version="1.1" xmlns="http://www.w3.org/2000/svg" xmlns:xlink="http://www.w3.org/1999/xlink">
    <title>Icon / XLS</title>
    <g id="Icon-/-XLS" stroke="none" stroke-width="1" fill="none" fill-rule="evenodd">
        <rect id="Spacer" x="0" y="0" width="24" height="24"></rect>
        <g id="file-earmark-excel-fill" transform="translate(6.000000, 4.000000)" fill="#000D14" fill-rule="nonzero">
            <path d="M7.293,0 L2,0 C0.8954305,0 0,0.8954305 0,2 L0,14 C0,15.1045695 0.8954305,16 2,16 L10,16 C11.1045695,16 12,15.1045695 12,14 L12,4.707 C12,4.44180519 11.8945494,4.18749273 11.707,4 L8,0.293 C7.81250727,0.105450625 7.55819481,0 7.293,0 Z M7.5,3.5 L7.5,1.5 L10.5,4.5 L8.5,4.5 C7.94771525,4.5 7.5,4.05228475 7.5,3.5 Z M3.884,6.68 L6,9.219 L8.116,6.679 C8.29300726,6.46692266 8.60842266,6.43849274 8.8205,6.6155 C9.03257734,6.79250726 9.06100726,7.10792266 8.884,7.32 L6.651,10 L8.884,12.68 C9.05273388,12.8926577 9.02095686,13.2011029 8.81240999,13.374892 C8.60386311,13.548681 8.29474413,13.5243159 8.116,13.32 L6,10.781 L3.884,13.321 C3.70699274,13.5330773 3.39157734,13.5615073 3.1795,13.3845 C2.96742266,13.2074927 2.93899274,12.8920773 3.116,12.68 L5.349,10 L3.116,7.32 C2.9964974,7.18340095 2.9604003,6.99277084 3.02168856,6.82193782 C3.08297683,6.6511048 3.2320253,6.52689775 3.41110976,6.49742016 C3.59019422,6.46794258 3.77118993,6.53782384 3.884,6.68 Z" id="Shape"></path>
        </g>
    </g>
</svg>