<svg xmlns="http://www.w3.org/2000/svg"
     width="112"
     height="112"
     viewBox="0 0 112 112">
	<path d="m92.526 42.435 10.537-10.309a3.092 3.092 0 0 0-.616-4.897l-32-18.783a3.254 3.254 0 0 0-3.91.47L56 19.227 45.462 8.915a3.254 3.254 0 0 0-3.909-.47l-32 18.783a3.093 3.093 0 0 0-.616 4.898l10.537 10.308L8.937 52.743a3.092 3.092 0 0 0 .616 4.898L20.8 64.242v17.845c0 1.1.59 2.119 1.554 2.684l32 18.783a3.26 3.26 0 0 0 3.293 0l32-18.783a3.117 3.117 0 0 0 1.554-2.684V64.242l11.247-6.601a3.093 3.093 0 0 0 .616-4.898L92.526 42.435zm-23.23-27.363L95.64 30.534l-8.136 7.959c-1.135-.666-25.24-14.814-26.343-15.463l8.135-7.958zM81.78 42.435 56 57.567 30.22 42.435 56 27.303l25.78 15.132zm-65.42-11.9 26.344-15.463 8.135 7.959-26.343 15.462-8.136-7.958zm0 23.8 8.136-7.958 26.343 15.462-8.135 7.958L16.36 54.335zm68.44 25.98L56 97.218 27.178 80.314V68l14.376 8.425c1.259.739 2.87.544 3.909-.471L56 65.644l10.538 10.309a3.254 3.254 0 0 0 3.909.47L84.8 68v12.315zM69.296 69.796l-8.135-7.958 26.343-15.463 8.135 7.959-26.343 15.462z"
	      fill="currentColor"/>
</svg>
