<svg xmlns="http://www.w3.org/2000/svg"
     width="16"
     height="16"
     fill="currentColor"
     class="bi bi-file-earmark-csv-fill"
     viewBox="0 0 16 16">
	<path d="M3.951 0A2 2 0 0 0 2 2v12a2 2 0 0 0 2 2h8a2 2 0 0 0 2-2V4.707A1 1 0 0 0 13.707 4L10 .293A1 1 0 0 0 9.293 0H4a2 2 0 0 0-.049 0zM9.5 1.5l3 3h-2a1 1 0 0 1-1-1v-2zM6.766 6.125c.457 0 .832.04 1.12.117.29.074.532.203.731.387.2.18.336.375.41.59.078.21.118.57.118 1.078v2.672c0 .386.058.785.175 1.195H8.05a4.828 4.828 0 0 1-.206-1.195c-.356.879-1.024 1.32-2.004 1.32-.59 0-1.063-.172-1.422-.516-.356-.347-.535-.785-.535-1.308 0-1.36 1.195-2.04 3.582-2.04.094 0 .219.005.379.009v-.446c0-.613-.418-.922-1.254-.922-.813 0-1.274.309-1.383.922L4.07 7.816c.063-.492.317-.894.762-1.21.445-.32 1.09-.481 1.934-.481zm1.078 3.027c-1.727 0-2.59.414-2.59 1.239 0 .246.086.457.258.632.176.172.441.258.793.258.508 0 .89-.16 1.148-.48.262-.324.39-.692.39-1.102v-.547zm2.812 1.52h1.461v1.34l-.945 1.863h-.516l.7-1.71h-.7v-1.493z"/>
</svg>
