<svg xmlns="http://www.w3.org/2000/svg"
     width="16"
     height="16"
     fill="currentColor"
     class="bi bi-file-earmark-csv"
     viewBox="0 0 16 16">
	<path d="M14 4.5V14a2 2 0 0 1-2 2H4a2 2 0 0 1-2-2V2a2 2 0 0 1 2-2h5.5L14 4.5zm-3 0A1.5 1.5 0 0 1 9.5 3V1H4a1 1 0 0 0-1 1v12a1 1 0 0 0 1 1h8a1 1 0 0 0 1-1V4.5h-2z"/>
	<path d="M9.976 12.165h-1.27A4.821 4.821 0 0 1 8.5 10.97c-.355.879-1.023 1.318-2.004 1.318-.59 0-1.064-.172-1.424-.516-.355-.347-.533-.783-.533-1.306 0-1.36 1.194-2.04 3.58-2.04.094 0 .22.002.38.007v-.446c0-.613-.417-.92-1.253-.92-.812 0-1.273.307-1.383.92l-1.137-.17c.063-.492.317-.896.762-1.213.446-.32 1.09-.48 1.934-.48.457 0 .83.039 1.12.117.288.075.532.204.731.387.2.18.336.377.41.592.08.21.118.57.118 1.078v2.672c0 .387.059.785.175 1.195zM8.5 9.153c-1.726 0-2.59.412-2.59 1.237a.87.87 0 0 0 .258.632c.176.172.44.258.79.258.508 0 .892-.16 1.15-.48A1.71 1.71 0 0 0 8.5 9.698zm3.616 1.517v1.343l-.943 1.863h-.516l.697-1.711h-.697v-1.494z"/>
</svg>
