<svg xmlns="http://www.w3.org/2000/svg"
   width="20px"
   height="20px"
   viewBox="0 0 20 20">
		<path fill="currentColor" style="display:inline;stroke-width:.832453"
		      d="M15.804.072 11.985 3.28H3.157a.717.717 0 0 0-.636.38.693.693 0 0 0 .056.736l3.065 4.212-4.73 3.973 1.513 1.8 14.89-12.507zm1.27 3.207L7.57 11.258l.58.797.006.007c.203.267.312.59.313.922v6.245a.685.685 0 0 0 .205.494.724.724 0 0 0 .787.15l3.13-1.164a.665.665 0 0 0 .468-.654v-5.07c0-.333.11-.656.312-.923l.006-.007 5.574-7.662a.69.69 0 0 0 .057-.735.716.716 0 0 0-.637-.379z"/>
</svg>
