<?xml version="1.0" encoding="UTF-8" standalone="no"?>
<svg
   xmlns:dc="http://purl.org/dc/elements/1.1/"
   xmlns:cc="http://creativecommons.org/ns#"
   xmlns:rdf="http://www.w3.org/1999/02/22-rdf-syntax-ns#"
   xmlns:svg="http://www.w3.org/2000/svg"
   xmlns="http://www.w3.org/2000/svg"
   xmlns:sodipodi="http://sodipodi.sourceforge.net/DTD/sodipodi-0.dtd"
   xmlns:inkscape="http://www.inkscape.org/namespaces/inkscape"
   width="18"
   height="18"
   viewBox="0 0 18 18"
   version="1.1"
   id="svg9"
   sodipodi:docname="grid-columns.svg"
   inkscape:version="1.0.2-2 (e86c870879, 2021-01-15)">
  <metadata
     id="metadata15">
    <rdf:RDF>
      <cc:Work
         rdf:about="">
        <dc:format>image/svg+xml</dc:format>
        <dc:type
           rdf:resource="http://purl.org/dc/dcmitype/StillImage" />
        <dc:title>Icons/Dots - Horizontal</dc:title>
      </cc:Work>
    </rdf:RDF>
  </metadata>
  <defs
     id="defs13" />
  <sodipodi:namedview
     pagecolor="#ffffff"
     bordercolor="#666666"
     borderopacity="1"
     objecttolerance="10"
     gridtolerance="10"
     guidetolerance="10"
     inkscape:pageopacity="0"
     inkscape:pageshadow="2"
     inkscape:window-width="1920"
     inkscape:window-height="1001"
     id="namedview11"
     showgrid="false"
     inkscape:zoom="16"
     inkscape:cx="18.770735"
     inkscape:cy="19.462934"
     inkscape:window-x="-9"
     inkscape:window-y="-9"
     inkscape:window-maximized="1"
     inkscape:current-layer="svg9"
     fit-margin-top="0"
     fit-margin-left="0"
     fit-margin-right="0"
     fit-margin-bottom="0" />
  <title
     id="title2">Icons/Dots - Horizontal</title>
  <rect
     id="Bound"
     fill-rule="nonzero"
     x="-2.9961002"
     y="-6"
     width="24"
     height="24"
     style="fill:none;stroke:none;stroke-width:1" />
  <g
     id="g1000"
     transform="translate(0.0038999,1.413199)">
    <path
       id="Icon-color"
       style="fill-rule:evenodd;stroke:none;stroke-width:0.733769"
       d="M 2.15625 1.4140625 C 1.0185567 1.4140625 0.09729752 1.8902629 0.01953125 2.4921875 L 0.00390625 2.4921875 L 0.00390625 7.9746094 L 0 7.9746094 L 0 15.457031 L 0.005859375 15.457031 C 0.034606375 16.083523 0.98184775 16.585937 2.1523438 16.585938 C 3.3228469 16.585938 4.2701507 16.083041 4.2988281 15.457031 L 4.3027344 15.457031 L 4.3027344 15.4375 C 4.3027952 15.4339 4.3046875 15.431354 4.3046875 15.427734 C 4.3046875 15.424134 4.3027944 15.421589 4.3027344 15.417969 L 4.3027344 9.9746094 L 4.3066406 9.9746094 L 4.3066406 9.9570312 C 4.3067014 9.9534412 4.3085938 9.9489085 4.3085938 9.9453125 C 4.3085938 9.9417125 4.3067006 9.9391429 4.3066406 9.9355469 L 4.3066406 2.5820312 C 4.3067014 2.5784413 4.3085938 2.5758616 4.3085938 2.5722656 C 4.3085938 2.5686656 4.3067006 2.566096 4.3066406 2.5625 L 4.3066406 2.4921875 L 4.2929688 2.4921875 C 4.2153877 1.8906668 3.2939652 1.4140625 2.15625 1.4140625 z M 9.0058594 1.4140625 C 7.8681661 1.4140625 6.9449538 1.8902629 6.8671875 2.4921875 L 6.8515625 2.4921875 L 6.8515625 7.9746094 L 6.8476562 7.9746094 L 6.8476562 15.457031 L 6.8535156 15.457031 C 6.8822626 16.083523 7.8314567 16.585937 9.0019531 16.585938 C 10.172449 16.585938 11.117795 16.083523 11.146484 15.457031 L 11.150391 15.457031 L 11.150391 15.4375 C 11.150452 15.4339 11.152344 15.431354 11.152344 15.427734 C 11.152344 15.424134 11.150491 15.421589 11.150391 15.417969 L 11.150391 9.9746094 L 11.154297 9.9746094 L 11.154297 9.9570312 C 11.154358 9.9534312 11.15625 9.9489185 11.15625 9.9453125 C 11.15625 9.9417125 11.154397 9.9391429 11.154297 9.9355469 L 11.154297 2.5820312 C 11.154358 2.5784312 11.15625 2.5758716 11.15625 2.5722656 C 11.15625 2.5686656 11.154397 2.566096 11.154297 2.5625 L 11.154297 2.4921875 L 11.140625 2.4921875 C 11.063016 1.8902629 10.143552 1.4140625 9.0058594 1.4140625 z M 15.853516 1.4140625 C 14.715801 1.4140625 13.792578 1.8902462 13.714844 2.4921875 L 13.701172 2.4921875 L 13.701172 2.5625 C 13.701111 2.56609 13.699219 2.5686596 13.699219 2.5722656 C 13.699219 2.5758656 13.701072 2.5784353 13.701172 2.5820312 L 13.701172 7.9746094 L 13.697266 7.9746094 L 13.697266 8.0429688 C 13.697205 8.0465587 13.695313 8.0510815 13.695312 8.0546875 C 13.695312 8.0582875 13.697166 8.0608571 13.697266 8.0644531 L 13.697266 15.417969 C 13.697205 15.421569 13.695313 15.424114 13.695312 15.427734 C 13.695312 15.431334 13.697166 15.43388 13.697266 15.4375 L 13.697266 15.457031 L 13.701172 15.457031 C 13.729912 16.083528 14.679106 16.585937 15.849609 16.585938 C 17.020105 16.585938 17.965452 16.083523 17.994141 15.457031 L 18 15.457031 L 18 15.427734 L 18 9.9746094 L 18.003906 9.9746094 L 18.003906 9.9453125 L 18.003906 2.5722656 L 18.003906 2.4921875 L 17.988281 2.4921875 C 17.910673 1.8902629 16.99121 1.4140625 15.853516 1.4140625 z "
       transform="translate(-0.0038999,-1.413199)" />
  </g>
</svg>
