<?xml version="1.0" encoding="UTF-8" standalone="no"?>
<svg xmlns="http://www.w3.org/2000/svg" fill="currentColor" viewBox="0 0 173.87999 175.76">
  <defs>
    <linearGradient
       gradientTransform="translate(-29.25,-29.05)"
       y2="116.937"
       x2="201.0235"
       y1="116.937"
       x1="33.235901"
       gradientUnits="userSpaceOnUse"
       id="lagoon-gradient">
      <stop
         style="stop-color:#2AAFC5"
         offset="0" />
      <stop
         style="stop-color:#32B1BC"
         offset="0.1295" />
      <stop
         style="stop-color:#48B5A2"
         offset="0.3453" />
      <stop
         style="stop-color:#6CBC78"
         offset="0.6209" />
      <stop
         style="stop-color:#9DC53F"
         offset="0.9425" />
      <stop
         style="stop-color:#A7C734"
         offset="1" />
    </linearGradient>    
  </defs>
  <path
     d="M 44.15,107.99 C 38.26,97.6 34.88,85.61 34.88,72.84 34.88,40.09 57.03,12.43 87.13,4 41.15,4.41 4,41.8 4,87.87 c 0,46.33 37.56,83.89 83.89,83.89 18.49,0 35.57,-6 49.44,-16.13 -7.62,2.78 -15.84,4.3 -24.42,4.3 -32.65,0.01 -60.23,-21.99 -68.76,-51.94 z"
     fill="url(#lagoon-gradient)" />
  <path
     d="m 169.88,105.62 c -11.91,22.97 -35.9,38.72 -63.51,38.72 -23.92,0 -45.12,-11.82 -58.11,-29.92 10.32,25.59 35.4,43.71 64.64,43.71 10.59,0 20.63,-2.39 29.63,-6.63 13.61,-11.71 23.43,-27.69 27.35,-45.88 z"
     fill="#2babc9" />
  <path
     d="m 104.76,20.57 c -19.14,0 -36.28,8.01 -47.89,20.66 8.52,-7.23 19.55,-11.61 31.6,-11.61 26.99,0 48.87,21.88 48.87,48.87 0,26.99 -21.88,48.87 -48.87,48.87 -18.16,0 -33.99,-9.91 -42.42,-24.61 9.41,21.86 32.14,37.28 58.71,37.28 34.99,0 63.35,-26.74 63.35,-59.73 0,-32.99 -28.36,-59.73 -63.35,-59.73 z"
     fill="#1c7f9f" />
</svg>
