<?xml version="1.0" encoding="UTF-8"?>
<svg width="20px" height="20px" viewBox="0 0 20 20" version="1.1" xmlns="http://www.w3.org/2000/svg" xmlns:xlink="http://www.w3.org/1999/xlink">
    <title>Icons/Log out</title>
    <g id="Icons" stroke="none" stroke-width="1" fill="none" fill-rule="evenodd">
        <g id="Drowpdown-menu" transform="translate(-117.000000, -148.000000)">
            <g id="Group" transform="translate(115.000000, 146.000000)">
                <rect id="Bounds" x="0" y="0" width="24" height="24"></rect>
                <path d="M16.5436459,4.44257536 C16.9440438,3.93912189 17.681837,3.85177972 18.1875155,4.24976339 C20.6097986,6.14986764 22,8.99590409 22,12.060296 C22,17.5406053 17.5135538,22 12,22 C6.48644616,22 2,17.5414293 2,12.060296 C2,8.99755205 3.38854348,6.1515156 5.80999751,4.25223534 C6.31899196,3.85507565 7.05429827,3.94076986 7.45469618,4.44504731 C7.85509409,4.95014874 7.76805107,5.68184543 7.26071458,6.0798291 C5.4054547,7.53498266 4.34187184,9.71441705 4.34187184,12.060296 C4.34187184,16.2576641 7.77799884,19.6730727 12.000829,19.6730727 C16.2228301,19.6730727 19.6589571,16.2576641 19.6589571,12.060296 C19.6589571,9.71359307 18.5945453,7.53333469 16.7376275,6.07735715 C16.230291,5.6785495 16.1432479,4.94685281 16.5436459,4.44257536 Z M12.5,2 C13.3276686,2 14,2.70434717 14,3.57142857 L14,11.4285714 C14,12.2956528 13.3276686,13 12.5,13 C11.6723314,13 11,12.2956528 11,11.4285714 L11,3.57142857 C11,2.70434717 11.6723314,2 12.5,2 Z" id="Icon-color" fill="currentColor"></path>
            </g>
        </g>
    </g>
</svg>