<svg xmlns="http://www.w3.org/2000/svg" width="16" height="16" viewBox="0 0 16 16"><defs><clipPath id="a"><path d="M0 0h16v16H0z"/></clipPath></defs><g style="clip-path:url(#a)"><path d="M0 0v16h16V0zm1 1h14v14H1z"/><path d="M5.734.109a.375.375 0 0 1 .531 0l1.5 1.5a.375.375 0 0 1-.531.531l-.859-.86v2.844a.375.375 0 1 1-.75 0V1.28l-.859.86a.375.375 0 1 1-.531-.531l1.5-1.5zM6 7.5a.375.375 0 0 1 .375.375v2.844l.859-.86a.375.375 0 0 1 .531.531l-1.5 1.5a.375.375 0 0 1-.531 0l-1.5-1.5a.375.375 0 1 1 .531-.531l.859.86V7.874A.375.375 0 0 1 6 7.5zM.109 6.265a.375.375 0 0 1 0-.531l1.5-1.5a.375.375 0 1 1 .531.531l-.86.859h2.844a.375.375 0 1 1 0 .75H1.28l.86.859a.375.375 0 1 1-.531.531l-1.5-1.5zM7.5 6a.375.375 0 0 1 .375-.375h2.844l-.86-.859a.375.375 0 0 1 .531-.531l1.5 1.5a.375.375 0 0 1 0 .531l-1.5 1.5a.375.375 0 0 1-.531-.531l.86-.859H7.874A.375.375 0 0 1 7.5 6z" transform="translate(2.001 2.001)" style="fill-rule:evenodd"/></g></svg>